<?xml version="1.0" encoding="iso-8859-1"?>
<!-- Generator: Adobe Illustrator 21.0.0, SVG Export Plug-In . SVG Version: 6.00 Build 0)  -->
<svg version="1.1" id="Capa_1" xmlns="http://www.w3.org/2000/svg" xmlns:xlink="http://www.w3.org/1999/xlink" x="0px" y="0px"
	 viewBox="0 0 476.759 476.759" style="enable-background:new 0 0 476.759 476.759;" xml:space="preserve">
<g>
	<g>
		<path d="M452.759,14.377h-160c-13.255,0-24,10.745-24,24v224c0,13.255,10.745,24,24,24h160c13.255,0,24-10.745,24-24v-224
			C476.759,25.122,466.014,14.377,452.759,14.377z M364.759,270.377h-72c-4.418,0-8-3.582-8-8v-56h80V270.377z M364.759,190.377h-80
			v-64h80V190.377z M460.759,262.377c0,4.418-3.582,8-8,8h-72v-64h80V262.377z M460.759,190.377h-80v-64h80V190.377z
			 M460.759,110.377h-176v-72c0-4.418,3.582-8,8-8h160c4.418,0,8,3.582,8,8V110.377z"/>
	</g>
</g>
<g>
	<g>
		<path d="M156.759,318.377h24v-16h-16v-8h-16v9.472c-12.473,4.393-19.023,18.066-14.629,30.539
			c3.38,9.596,12.455,16.009,22.629,15.989c4.418,0,8,3.582,8,8s-3.582,8-8,8h-24v16h16v8h16v-9.472
			c12.473-4.393,19.023-18.066,14.629-30.539c-3.38-9.596-12.455-16.009-22.629-15.989c-4.418,0-8-3.582-8-8
			S152.341,318.377,156.759,318.377z"/>
	</g>
</g>
<g>
	<g>
		<path d="M436.759,46.377h-128c-4.418,0-8,3.582-8,8v32c0,4.418,3.582,8,8,8h128c4.418,0,8-3.582,8-8v-32
			C444.759,49.958,441.177,46.377,436.759,46.377z M428.759,78.377h-112v-16h112V78.377z"/>
	</g>
</g>
<g>
	<g>
		<path d="M468.759,350.377h-8v-16c0-17.673-14.327-32-32-32H282.727l-85-144.536l54.36-124.264
			c1.768-4.049-0.081-8.765-4.131-10.533c-1.881-0.821-4.005-0.888-5.933-0.187l-38.96,14.168l1.336-4.264
			c1.317-4.217-1.034-8.704-5.252-10.021c-1.822-0.569-3.787-0.468-5.54,0.285l-52.048,22.296l-44.392-29.6
			c-3.674-2.454-8.642-1.464-11.096,2.211c-1.145,1.715-1.584,3.807-1.224,5.837l3.264,18.488l-34.472-3.832
			c-4.394-0.465-8.333,2.72-8.798,7.114c-0.161,1.517,0.116,3.049,0.798,4.414l54.168,108.424L8.655,338.521
			c-6.313,12.012-9.262,25.506-8.536,39.056c1.129,16.44,7.209,32.154,17.44,45.072L4.863,436.377
			c-4.679,5.192-6.112,12.542-3.728,19.112c2.183,4.382,6.732,7.078,11.624,6.888h288c5.747,0.111,11.026-3.158,13.488-8.352
			c2.671-5.837,1.784-12.686-2.288-17.648c-0.265-0.332-0.557-0.643-0.872-0.928l-14.76-13.368
			c5.737-7.43,10.188-15.77,13.168-24.672c1.583-4.882,2.624-9.923,3.104-15.032h68.16v40c0,4.418,3.582,8,8,8h80
			c4.418,0,8-3.582,8-8v-64C476.759,353.958,473.177,350.377,468.759,350.377z M412.759,334.377c0-8.837,7.163-16,16-16
			s16,7.163,16,16v16h-32V334.377z M197.063,56.233l32.88-11.96l-46.416,106.104h-15.888L197.063,56.233z M136.343,61.073
			c2.25,1.5,5.106,1.762,7.592,0.696l40-17.152l-33.056,105.76h-27.408L103.887,39.409L136.343,61.073z M66.487,55.977l24.576,2.736
			l12.624,71.664L66.487,55.977z M17.383,446.377l11.28-12.064c5.646,4.841,11.918,8.899,18.648,12.064H17.383z M299.327,446.377
			h-33.12c6.974-3.269,13.453-7.502,19.248-12.576L299.327,446.377z M294.183,392.777h0.024
			c-5.988,17.944-19.308,32.505-36.648,40.064l5.904,13.536H50.055l5.904-13.536c-22.76-9.92-38.124-31.665-39.872-56.432
			c-0.509-10.652,1.859-21.244,6.856-30.664l90.736-179.368h8.328l-18.136,60.472c-3.084,10.293,2.761,21.137,13.054,24.221
			c6.848,2.052,14.271,0.182,19.33-4.869l18.16-18.168l-11.312-11.312l-18.168,18.16c-1.343,1.35-3.526,1.355-4.876,0.012
			c-0.904-0.899-1.238-2.224-0.868-3.444l19.52-65.072h19.648l14.6,65.736l15.616-3.472l-13.848-62.264h9.456l80,136h-38.12
			c-22.091-38.263-71.019-51.373-109.282-29.282s-51.373,71.019-29.282,109.282c22.091,38.263,71.019,51.373,109.282,29.282
			c12.162-7.021,22.261-17.121,29.282-29.282h70.4C296.034,385.908,295.271,389.39,294.183,392.777z M380.759,358.377v8H221.271
			c-3.036,0.002-5.809,1.721-7.16,4.44c-15.707,31.665-54.109,44.601-85.774,28.894c-31.665-15.707-44.601-54.109-28.894-85.774
			c15.707-31.665,54.109-44.601,85.774-28.894c11.69,5.799,21.327,15.032,27.622,26.462c0.562,3.943,3.938,6.872,7.92,6.872h180.448
			c-2.879,4.843-4.415,10.366-4.448,16v16h-8C384.341,350.377,380.759,353.958,380.759,358.377z M460.759,414.377h-64v-48h64
			V414.377z"/>
	</g>
</g>
<g>
	<g>
		<rect x="420.759" y="382.377" width="16" height="16"/>
	</g>
</g>
<g>
	<g>
		<rect x="220.759" y="334.377" width="16" height="16"/>
	</g>
</g>
<g>
	<g>
		<rect x="252.759" y="334.377" width="24" height="16"/>
	</g>
</g>
<g>
	<g>
		<rect x="292.759" y="334.377" width="72" height="16"/>
	</g>
</g>
<g>
	<g>
		<polygon points="332.759,150.377 332.759,134.377 316.759,134.377 316.759,150.377 300.759,150.377 300.759,166.377 
			316.759,166.377 316.759,182.377 332.759,182.377 332.759,166.377 348.759,166.377 348.759,150.377 		"/>
	</g>
</g>
<g>
	<g>
		<rect x="396.759" y="150.377" width="48" height="16"/>
	</g>
</g>
<g>
	<g>
		<polygon points="347.383,228.033 336.071,216.721 324.759,228.033 313.447,216.721 302.135,228.033 313.447,239.345 
			302.135,250.665 313.447,261.977 324.759,250.657 336.071,261.977 347.383,250.665 336.071,239.345 		"/>
	</g>
</g>
<g>
	<g>
		<rect x="396.759" y="230.377" width="48" height="16"/>
	</g>
</g>
<g>
	<g>
		<rect x="412.759" y="250.377" width="16" height="8"/>
	</g>
</g>
<g>
	<g>
		<rect x="412.759" y="218.377" width="16" height="8"/>
	</g>
</g>
<g>
</g>
<g>
</g>
<g>
</g>
<g>
</g>
<g>
</g>
<g>
</g>
<g>
</g>
<g>
</g>
<g>
</g>
<g>
</g>
<g>
</g>
<g>
</g>
<g>
</g>
<g>
</g>
<g>
</g>
</svg>
