<svg viewBox="-4 0 472 472.00267" xmlns="http://www.w3.org/2000/svg"><path d="m256.875 378.914062-32.875-6.910156v-40l32.875-6.914062c3.269531-.6875 5.984375-2.96875 7.222656-6.074219 1.242188-3.105469.847656-6.625-1.046875-9.382813l-19.050781-27.628906 10.664062-10.664062c-11.941406-11.570313-24.546874-22.441406-37.742187-32.5625-5.632813-4.378906-12.5625-6.761719-19.695313-6.773438h-5.226562l56-72-64 16 16-40-56 24-48-32 16 40-56-16 56 80h-5.230469c-7.097656.003906-13.992187 2.359375-19.609375 6.703125-31.808594 24.558594-87.160156 72.414063-87.160156 121.296875 0 83.941406 68.058594 104 152 104 43.929688 0 83.386719-5.601562 111.128906-22.875l-19.128906-19.125 19.050781-27.601562c1.910157-2.757813 2.3125-6.285156 1.070313-9.402344-1.242188-3.117188-3.964844-5.402344-7.246094-6.085938zm0 0" fill="#ffb41f"/><path d="m152 368.003906h24v-16h-16v-8h-16v9.472656c-11.011719 3.875-17.621094 15.132813-15.640625 26.640626 1.976563 11.503906 11.964844 19.90625 23.640625 19.886718 4.417969 0 8 3.582032 8 8 0 4.417969-3.582031 8-8 8h-24v16h16v8h16v-9.472656c11.015625-3.878906 17.621094-15.136719 15.644531-26.640625-1.980469-11.507813-11.96875-19.910156-23.644531-19.886719-4.417969 0-8-3.582031-8-8 0-4.417968 3.582031-8 8-8zm0 0" fill="#ffdb94"/><path d="m336 121.15625h16v110.847656h-16zm0 0" fill="#0f687a"/><path d="m288 120.003906c0-66.273437 25.074219-119.99999975 56-119.99999975-34.683594-.23437525-67.746094 14.65234375-90.566406 40.77343775-22.820313 26.121094-33.128906 60.886718-28.242188 95.226562 8.320313-8.382812 19.632813-13.109375 31.441406-13.136718 11.808594-.027344 23.140626 4.648437 31.496094 12.992187-.328125-5.25-.128906-10.417969-.128906-15.855469zm0 0" fill="#74d5e8"/><path d="m344 .00390625c30.929688 0 56 53.72656275 56 119.99999975 0 5.4375.203125 10.605469-.125 15.855469 8.355469-8.34375 19.6875-13.019531 31.496094-12.992187 11.808594.027343 23.121094 4.753906 31.4375 13.136718 4.890625-34.339844-5.421875-69.105468-28.238282-95.226562-22.820312-26.121094-55.886718-41.007813-90.570312-40.77343775zm0 0" fill="#74d5e8"/><g fill="#1cc8eb"><path d="m400 120.003906c0-66.273437-25.070312-119.99999975-56-119.99999975-30.925781 0-56 53.72656275-56 119.99999975 0 5.4375-.199219 10.605469.128906 15.855469 34.613282-19.808594 77.128906-19.808594 111.746094 0 .328125-5.25.125-10.417969.125-15.855469zm0 0"/><path d="m431.128906 378.914062 32.871094-6.910156v-40l-32.871094-6.914062c-3.273437-.6875-5.984375-2.96875-7.226562-6.074219-1.238282-3.105469-.84375-6.625 1.050781-9.382813l19.046875-27.628906-30-30-27.597656 19.046875c-2.753906 1.894531-6.277344 2.289063-9.382813 1.050781-3.105469-1.242187-5.386719-3.953124-6.074219-7.226562l-6.945312-32.871094h-40l-6.910156 32.871094c-.691406 3.273438-2.96875 5.984375-6.074219 7.226562-3.105469 1.238282-6.628906.84375-9.382813-1.050781l-27.632812-19.046875-30 30 19.050781 27.597656c1.894531 2.757813 2.289063 6.277344 1.046875 9.382813-1.238281 3.105469-3.953125 5.386719-7.222656 6.074219l-32.875 6.945312v40l32.875 6.910156c3.269531.691407 5.984375 2.96875 7.222656 6.074219 1.242188 3.105469.847656 6.628907-1.046875 9.382813l-19.050781 27.632812 19.128906 19.125 10.871094 10.875 27.601562-19.050781c2.753907-1.898437 6.277344-2.296875 9.382813-1.054687 3.109375 1.242187 5.386719 3.957031 6.074219 7.230468l6.941406 32.875h40l6.914062-32.875c.683594-3.273437 2.964844-5.988281 6.070313-7.230468 3.109375-1.242188 6.632813-.84375 9.386719 1.054687l27.628906 19.050781 30-30-19.046875-27.601562c-1.910156-2.757813-2.3125-6.285156-1.070313-9.402344 1.242188-3.117188 3.964844-5.402344 7.246094-6.085938zm-87.128906 21.089844c-26.507812 0-48-21.492187-48-48 0-26.511718 21.492188-48 48-48 26.511719 0 48 21.488282 48 48 0 26.507813-21.488281 48-48 48zm0 0"/></g></svg>