<svg height="480pt" viewBox="0 0 480 480" width="480pt" xmlns="http://www.w3.org/2000/svg"><path d="m16 48h160v296h-160zm0 0" fill="#b3b3b3"/><path d="m16 48h128v296h-128zm0 0" fill="#ccc"/><path d="m176 0h304v384h-304zm0 0" fill="#a67c52"/><path d="m176 0h272v384h-272zm0 0" fill="#c69c6d"/><path d="m224 112h48v32h-48zm0 0" fill="#f7931e"/><path d="m224 112h24v32h-24zm0 0" fill="#fbb03b"/><path d="m224 32h208v48h-208zm0 0" fill="#3f8dae"/><path d="m224 32h176v48h-176zm0 0" fill="#54bce8"/><path d="m416 288 16-48 16 48zm0 0" fill="#fdd089"/><path d="m432 480c-8.839844 0-16-7.160156-16-16v-176h32v176c0 8.839844-7.160156 16-16 16zm0 0" fill="#beb53a"/><path d="m424 477.785156c4.761719-2.769531 8-7.875 8-13.785156v-176h-16v176c0 5.902344 3.238281 11.007812 8 13.785156zm0 0" fill="#fdf14d"/><path d="m432 480c-8.839844 0-16-7.160156-16-16v-32h32v32c0 8.839844-7.160156 16-16 16zm0 0" fill="#4d4d4d"/><path d="m424 477.785156c4.761719-2.769531 8-7.875 8-13.785156v-32h-16v32c0 5.902344 3.238281 11.007812 8 13.785156zm0 0" fill="#666"/><path d="m96 240h288v144h-288zm0 0" fill="#2b8838"/><path d="m96 240h256v144h-256zm0 0" fill="#39b54a"/><path d="m64 272h288v144h-288zm0 0" fill="#2b8838"/><path d="m64 272h256v144h-256zm0 0" fill="#39b54a"/><path d="m32 304h288v144h-288zm0 0" fill="#2b8838"/><path d="m32 304h256v144h-256zm0 0" fill="#39b54a"/><path d="m0 336h288v144h-288zm0 0" fill="#2b8838"/><path d="m0 336h256v144h-256zm0 0" fill="#39b54a"/><path d="m96 480v-144l96-96h96l-96 96v144zm0 0" fill="#f7931e"/><path d="m256 240h-64l-96 96v144h64v-144zm0 0" fill="#fbb03b"/><path d="m144 448h-24v-16h24c4.414062 0 8-3.59375 8-8s-3.585938-8-8-8c-13.230469 0-24-10.769531-24-24s10.769531-24 24-24h24v16h-24c-4.414062 0-8 3.59375-8 8s3.585938 8 8 8c13.230469 0 24 10.769531 24 24s-10.769531 24-24 24zm0 0" fill="#f15a24"/><path d="m136 352h16v24h-16zm0 0" fill="#f15a24"/><path d="m136 440h16v24h-16zm0 0" fill="#f15a24"/><path d="m224 176h48v32h-48zm0 0" fill="#666"/><path d="m224 176h24v32h-24zm0 0" fill="#999"/><path d="m304 176h48v32h-48zm0 0" fill="#666"/><path d="m304 176h24v32h-24zm0 0" fill="#999"/><path d="m384 176h48v32h-48zm0 0" fill="#666"/><path d="m384 176h24v32h-24zm0 0" fill="#999"/><path d="m384 112h48v32h-48zm0 0" fill="#f7931e"/><path d="m384 112h24v32h-24zm0 0" fill="#fbb03b"/><path d="m304 112h48v32h-48zm0 0" fill="#f7931e"/><path d="m304 112h24v32h-24zm0 0" fill="#fbb03b"/><g fill="#4d4d4d"><path d="m56 72h96v16h-96zm0 0"/><path d="m72 104h64v16h-64zm0 0"/><path d="m56 136h96v16h-96zm0 0"/><path d="m56 200h96v16h-96zm0 0"/><path d="m72 168h64v16h-64zm0 0"/></g></svg>